<?xml version="1.0" standalone="no"?><!DOCTYPE svg PUBLIC "-//W3C//DTD SVG 1.1//EN" "http://www.w3.org/Graphics/SVG/1.1/DTD/svg11.dtd"><svg t="1597220270518" class="icon" viewBox="0 0 1024 1024" version="1.1" xmlns="http://www.w3.org/2000/svg" p-id="842" xmlns:xlink="http://www.w3.org/1999/xlink" width="200" height="200"><defs><style type="text/css"></style></defs><path d="M896 255.99999998H341.333333L0 639.99999998l341.333333 384h554.666667c70.688 0 128-57.312 128-128V383.99999998c0-70.688-57.312-128-128-128z m42.666667 640c0 23.530667-19.136 42.666667-42.666667 42.666667H379.658667L114.176 639.99999998l265.482667-298.666667H896c23.530667 0 42.666667 19.136 42.666667 42.666667v512zM798.165333 737.83466698a42.666667 42.666667 0 0 1-59.274666 61.376c-0.362667-0.330667-0.704-0.682667-1.056-1.045334L640 700.34133298l-97.834667 97.824A42.538667 42.538667 0 0 1 512 810.66666698a42.666667 42.666667 0 0 1-30.165333-72.832L579.658667 639.99999998l-97.824-97.834667a42.666667 42.666667 0 1 1 59.285333-61.376c0.362667 0.341333 0.704 0.693333 1.056 1.045334L640 579.65866698l97.834667-97.824a42.666667 42.666667 0 1 1 60.330666 60.341333L700.341333 639.99999998l97.824 97.834667z" p-id="843"></path></svg>