<?xml version="1.0" standalone="no"?><!DOCTYPE svg PUBLIC "-//W3C//DTD SVG 1.1//EN" "http://www.w3.org/Graphics/SVG/1.1/DTD/svg11.dtd"><svg t="1598340135812" class="icon" viewBox="0 0 1024 1024" version="1.1" xmlns="http://www.w3.org/2000/svg" p-id="1349" xmlns:xlink="http://www.w3.org/1999/xlink" width="200" height="200"><defs><style type="text/css"></style></defs><path d="M223.5 361.3c-27.3 0-49.5-22.2-49.5-49.5s22.2-49.5 49.5-49.5v20c-16.2 0-29.5 13.2-29.5 29.5s13.2 29.5 29.5 29.5v20zM516.7 361.3v-20c16.1 0 29.2-13.1 29.2-29.2s-13.1-29.2-29.2-29.2v-20c27.1 0 49.2 22.1 49.2 49.2s-22.1 49.2-49.2 49.2z" fill="#707070" p-id="1350"></path><path d="M371.1 491.5c-82.2 0-149.1-66.9-149.1-149.1v-81.2h20v81.2c0 34.3 13.5 66.7 37.9 91.2 24.5 24.5 56.9 37.9 91.2 37.9s66.7-13.5 91.2-37.9c24.5-24.5 37.9-56.9 37.9-91.2v-81.2h20v81.2c0.1 82.2-66.8 149.1-149.1 149.1z" fill="#707070" p-id="1351"></path><path d="M553.1 286.8h-20c0-40.7-5.6-98.8-32.4-144-27-45.7-70.5-68.9-129.1-68.9-33.3 0-61.8 6.4-84.7 19.1-20.1 11.1-36.5 27.5-48.8 48.6-20 34.4-29.7 81.1-29.7 142.9h-20c0-65.4 10.6-115.5 32.4-153 30-51.5 80.7-77.6 150.8-77.6 34.6 0 65 7.4 90.3 22 22.7 13.1 41.6 32.2 56.1 56.6 29 49.2 35.1 111.1 35.1 154.3z" fill="#707070" p-id="1352"></path><path d="M256.6 276.7c-35.3 0-59.3-5.5-60.5-5.8l4.6-19.5-2.3 9.7 2.3-9.7c0.3 0.1 33.6 7.7 78.5 4.5 41-2.9 100.5-15.8 151.2-60.3l8.2-7.2 6.4 8.9c29.4 40.4 47.7 53.9 97.4 54l-0.1 20c-54.4-0.1-78.8-16.8-107.1-53.7-31.4 25.2-82 53.2-155.3 58.3-8.2 0.5-16 0.8-23.3 0.8zM467.5 965.4H92.6V647.9l0.1-0.5c2.7-26.1 19.2-47.5 45.2-58.8l165.4-71.7v-48.2h20V530l-177.5 77c-19.3 8.4-31.1 23.3-33.2 42.1v296.4h354.9v19.9z" fill="#707070" p-id="1353"></path><path d="M371.3 599.9l-65.2-65.1 14.2-14.1 50.7 50.6 46.1-47.9v-44.5h20v52.5z" fill="#707070" p-id="1354"></path><path d="M307.7 756.2l-20-0.1 0.4-90.8 75.5-86.3 15.1 13.2-70.7 80.7zM287.692 954.13l0.364-149.3 20 0.05-0.364 149.3zM729.5 863.7h217.2v20H729.5zM183.4 804.8h20v150.6h-20zM556.7 804.8h20v150.6h-20z" fill="#707070" p-id="1355"></path><path d="M648.1 965.4H505.6v-20h122.5V649c-2.1-18.7-13.9-33.7-33.3-42.1L417.4 530v-61.3h20v48.2l165.4 71.7c26 11.3 42.5 32.8 45.2 58.8l0.1 0.5v317.5zM224.2 700.8h-20v-38.9c0-49.5 22-96 60.4-127.8l12.8 15.4c-33.8 28-53.1 68.9-53.1 112.4v38.9z" fill="#707070" p-id="1356"></path><path d="M516.1 631.9c-1.1-20.6-18.5-54.5-54.8-83.7l12.5-15.6c27.5 22.1 60.3 61.1 62.2 98.2l-19.9 1.1zM214.2 763.5c-22.1 0-40.1-18-40.1-40.1s18-40.1 40.1-40.1 40.1 18 40.1 40.1-18 40.1-40.1 40.1z m0-60.3c-11.1 0-20.1 9-20.1 20.1s9 20.1 20.1 20.1 20.1-9 20.1-20.1-9-20.1-20.1-20.1z" fill="#707070" p-id="1357"></path><path d="M553 763.5v-20c9.8 0 17.8-8 17.8-17.8v-66.5c0-9.8-8-17.8-17.8-17.8h-57.7c-9.8 0-17.8 8-17.8 17.8v66.5c0 9.8 8 17.8 17.8 17.8v20c-20.9 0-37.8-17-37.8-37.8v-66.5c0-20.9 17-37.8 37.8-37.8H553c20.9 0 37.8 17 37.8 37.8v66.5c0.1 20.8-16.9 37.8-37.8 37.8zM777.5 392.1h-98.1v-83.3h-83.3v-98.1h83.3v-83.3h98.1v83.3h83.3v98.1h-83.3v83.3z m-78-20h58.1v-83.3h83.3v-58.1h-83.3v-83.3h-58.1v83.3h-83.3v58.1h83.3v83.3zM779.1 945.4h117.8v20H779.1zM897.6 882H769.1V480.6h128.5V882z m-108.5-20h88.5V500.6h-88.5V862z" fill="#707070" p-id="1358"></path><path d="M783.6 764h104v20h-104z" fill="#707070" p-id="1359"></path><path d="M799.8 777.1h20V872h-20zM847.3 777.1h20V872h-20z" fill="#707070" p-id="1360"></path><path d="M799.8 766.9h20v94.9h-20zM847.3 766.9h20v94.9h-20z" fill="#707070" p-id="1361"></path><path d="M799.8 766.9h20v186.9h-20zM847.3 766.9h20v186.9h-20zM879.7 500.6h-87.9l43.6-93.2 44.3 93.2z m-56.5-20H848l-12.5-26.3-12.3 26.3z" fill="#707070" p-id="1362"></path><path d="M825.4 357.2h20v73.5h-20zM783.6 621.4h104v20h-104zM845 693.6h42.6v20H845zM845 726.6h42.4v20H845zM809.8 543.4h18.8v20h-18.8zM840.4 512.8h18.8v20h-18.8zM840.4 584.3h18.8v20h-18.8z" fill="#707070" p-id="1363"></path></svg>