<?xml version="1.0" standalone="no"?><!DOCTYPE svg PUBLIC "-//W3C//DTD SVG 1.1//EN" "http://www.w3.org/Graphics/SVG/1.1/DTD/svg11.dtd"><svg t="1598614121672" class="icon" viewBox="0 0 1024 1024" version="1.1" xmlns="http://www.w3.org/2000/svg" p-id="1418" xmlns:xlink="http://www.w3.org/1999/xlink" width="200" height="200"><defs><style type="text/css"></style></defs><path d="M930.23529453 512v-84.70588271c0-63.52941182-47.64705908-111.17647089-111.17647089-111.17647002v-58.23529454c0-63.52941182-47.64705908-111.17647089-111.17647091-111.17647002h-100.58823544l-31.76470547-42.35294179c-10.58823545-10.58823545-26.47058818-15.88235273-37.05882364-5.29411729l-63.52941181 47.64705908h-270c-63.52941182 0-111.17647089 47.64705908-111.1764709 111.17647002V819.05882363c0 63.52941182 47.64705908 111.17647089 111.1764709 111.1764709h614.11764727c63.52941182 0 111.17647089-47.64705908 111.17647089-111.17647089V512z m-52.94117724 169.41176455h-169.41176456c-31.76470547 0-58.23529453-26.47058818-58.23529365-58.23529366 0-31.76470547 26.47058818-58.23529453 58.23529365-58.23529453h169.41176456v116.47058819z m-169.41176456-481.76470547c31.76470547 0 58.23529453 26.47058818 58.23529454 58.23529365v58.23529454h-37.05882363l-84.70588272-116.47058819h63.52941181z m-158.82352909-42.35294179l105.88235273 148.23529453h-312.35294092l206.47058819-148.23529453z m-344.11764727 42.35294179h195.88235274l-153.52941182 111.17647003s0 5.29411729-5.29411729 5.29411816h-37.05882363c-31.76470547 0-58.23529453-26.47058818-58.23529366-58.23529454 0-31.76470547 26.47058818-58.23529453 58.23529366-58.23529365z m672.35294092 619.41176455c0 31.76470547-26.47058818 58.23529453-58.23529365 58.23529366h-614.11764727c-31.76470547 0-58.23529453-26.47058818-58.23529366-58.23529366v-465.88235274c15.88235273 10.58823545 37.05882364 15.88235273 58.23529366 15.88235274H819.05882363c31.76470547 0 58.23529453 26.47058818 58.23529366 58.23529366v84.70588271h-169.41176456c-63.52941182 0-111.17647089 47.64705908-111.17647002 111.17647089 0 58.23529453 47.64705908 111.17647089 111.17647002 111.17647003h169.41176456v84.70588271z" fill="#707070" p-id="1419"></path><path d="M707.88235273 623.17647089m-26.47058818 0a26.47058818 26.47058818 0 1 0 52.94117637 0 26.47058818 26.47058818 0 1 0-52.94117637 0Z" fill="#707070" p-id="1420"></path></svg>