<?xml version="1.0" standalone="no"?><!DOCTYPE svg PUBLIC "-//W3C//DTD SVG 1.1//EN" "http://www.w3.org/Graphics/SVG/1.1/DTD/svg11.dtd"><svg t="1598614127249" class="icon" viewBox="0 0 1024 1024" version="1.1" xmlns="http://www.w3.org/2000/svg" p-id="1563" xmlns:xlink="http://www.w3.org/1999/xlink" width="200" height="200"><defs><style type="text/css"></style></defs><path d="M766.46357422 62.00527344H257.53642578c-60.71572266 0-110.11113281 49.39628906-110.11113281 110.11113281v679.76630859c0 60.71660156 49.39628906 110.11201172 110.11113281 110.11201172h508.92714844c60.71484375 0 110.11025391-49.39541016 110.11025391-110.11201172V172.11640625C876.57470703 111.4015625 827.17929688 62.00527344 766.46357422 62.00527344z m39.66152344 789.8774414c0 21.87070312-17.79169922 39.66240234-39.66152344 39.66240235H257.53642578c-21.86982422 0-39.66152344-17.79169922-39.66152344-39.66240235V442.23857422l0.37265625 0.21533203a559.69980469 559.69980469 0 0 0 5.22509766 3.02167969c0.63017578 0.35947266 1.26386719 0.71455078 1.89580078 1.07314453a591.56015625 591.56015625 0 0 0 5.94052734 3.31699219c1.30166016 0.71542969 2.60595703 1.42558594 3.91376954 2.13046875 0.62578125 0.33837891 1.25068359 0.67763672 1.87822265 1.0133789a537.50478516 537.50478516 0 0 0 5.72607422 3.02167969l0.27861328 0.14414062a587.39414063 587.39414063 0 0 0 5.54765625 2.83798829c0.63808594 0.32167969 1.27792969 0.63984375 1.91689453 0.95888671a550.36933594 550.36933594 0 0 0 10.20673828 4.978125c0.63457031 0.30058594 1.26650391 0.6046875 1.90195313 0.90263672a560.31152344 560.31152344 0 0 0 5.89306641 2.73515625l0.23203125 0.10371094c1.92392578 0.87714844 3.85576172 1.74199219 5.79111328 2.59892578 0.64072266 0.28388672 1.28408203 0.5625 1.92568359 0.84375 1.39042969 0.60820313 2.78261719 1.21376953 4.17832031 1.81230469a547.21230469 547.21230469 0 0 0 6.38876953 2.68945312c0.63193359 0.26279297 1.26298828 0.52646484 1.89667969 0.7866211a573.12246094 573.12246094 0 0 0 12.27919922 4.86738281c0.63720703 0.24345703 1.27705078 0.48427734 1.91513672 0.72509766a515.56552734 515.56552734 0 0 0 6.51357422 2.42490234 603.32519531 603.32519531 0 0 0 4.38574219 1.58115234c0.64511719 0.23027344 1.28935547 0.46142578 1.93623046 0.6890625 2.08652344 0.73564453 4.1765625 1.46162109 6.27539063 2.17441407a579.97089844 579.97089844 0 0 0 26.38564453 8.25029297c6.36503906 84.6421875 77.05634766 151.33710938 163.32626953 151.33710937s156.96123047-66.69580078 163.32626953-151.33710937a579.62548828 579.62548828 0 0 0 26.38564454-8.25029297 574.01982422 574.01982422 0 0 0 6.27626953-2.17441407c0.64599609-0.22763672 1.29023438-0.45878906 1.93535156-0.6890625a577.88085938 577.88085938 0 0 0 4.38574219-1.58115234c0.71894531-0.26367188 1.43876953-0.52734375 2.15683593-0.79277344a527.18642578 527.18642578 0 0 0 4.35585938-1.6321289 452.62353516 452.62353516 0 0 0 8.07011719-3.1209961l0.00351562-0.00175781a545.59072266 545.59072266 0 0 0 6.11982422-2.47060547c0.63457031-0.26015625 1.26474609-0.52382812 1.89667969-0.78662109a568.43085937 568.43085937 0 0 0 6.38789062-2.68857422c1.39833984-0.59941406 2.79140625-1.20410156 4.18359375-1.81318359 0.64072266-0.28125 1.28408203-0.55986328 1.92304688-0.8428711a590.06777344 590.06777344 0 0 0 5.79111328-2.59892578l0.23203125-0.10371094a560.31152344 560.31152344 0 0 0 5.89306641-2.73515625c0.63544922-0.29882813 1.26738281-0.60292969 1.90195312-0.90263672a619.87148437 619.87148437 0 0 0 4.07724609-1.95644531c0.70400391-0.34277344 1.40800781-0.68466797 2.11113282-1.03007812a550.17246094 550.17246094 0 0 0 4.01748047-1.99160157c0.63984375-0.31904297 1.2796875-0.63720703 1.91689453-0.95888671a574.10683594 574.10683594 0 0 0 5.53183593-2.83007813l0.31289063-0.16171875a542.48027344 542.48027344 0 0 0 5.70673828-3.01201172c0.62753906-0.33662109 1.25244141-0.67675781 1.87910156-1.01425781a510.05566406 510.05566406 0 0 0 9.85429688-5.44746094c0.63193359-0.35771484 1.26474609-0.71367187 1.89580078-1.07314453a568.10039063 568.10039063 0 0 0 5.22509766-3.02167969l0.37177734-0.21533203v409.64501953zM583.89541016 480.02890625v25.07431641h-54.84023438v16.33623046h54.84023438v23.95546875h-54.84023438v52.60253907h-34.02861328v-52.60253907h-53.72138672V521.43945313h53.72138672v-16.33623047h-53.72138672v-25.07431641h40.21435547l-55.95908203-87.29736328h39.02255859l48.01816406 80.0296875 48.01728516-80.0296875h37.82197266l-54.84023438 87.29736328h40.29521485z m222.2296875-121.67402344l-0.60908204 0.43242188a458.24150391 458.24150391 0 0 1-6.91699218 4.81904297c-0.32695313 0.22412109-0.65566406 0.44472656-0.9834961 0.66708984a474.47138672 474.47138672 0 0 1-7.13496093 4.75927734l-0.80507813 0.5203125a468.61083984 468.61083984 0 0 1-7.44960937 4.753125c-0.15380859 0.09580078-0.309375 0.18984375-0.46142579 0.28476563a488.04697266 488.04697266 0 0 1-7.54628906 4.60371094c-0.15556641 0.09228516-0.309375 0.18720703-0.4649414 0.27949218a476.99560547 476.99560547 0 0 1-7.60078125 4.43056641c-0.30058594 0.17138672-0.59765625 0.34541016-0.89736329 0.51591797a475.22109375 475.22109375 0 0 1-7.4109375 4.12382812c-0.39462891 0.21533203-0.78925781 0.43330078-1.18476562 0.646875a492.99960938 492.99960938 0 0 1-8.67919922 4.59316407 485.12900391 485.12900391 0 0 1-8.75126953 4.40859375 495.25576172 495.25576172 0 0 1-16.27294922 7.6359375c-0.46494141 0.20742188-0.93251953 0.41308594-1.39921875 0.6196289a499.00253906 499.00253906 0 0 1-7.6359375 3.31523438c-0.41396484 0.17490234-0.82705078 0.34716797-1.24013672 0.5203125a499.81816406 499.81816406 0 0 1-7.90048828 3.2484375c-0.31464844 0.12744141-0.63193359 0.24873047-0.94570312 0.37441406a492.44150391 492.44150391 0 0 1-8.72666016 3.38554687 508.63359375 508.63359375 0 0 1-8.14658203 2.98828125c-0.31552734 0.1125-0.63017578 0.22851563-0.94570313 0.34013672a496.21464844 496.21464844 0 0 1-8.1149414 2.80195313c-0.42275391 0.14238281-0.84462891 0.28652344-1.26738282 0.42802734a490.36201172 490.36201172 0 0 1-7.97695312 2.58222656c-0.48779297 0.1546875-0.97470703 0.31025391-1.4625 0.46142579-0.67675781 0.21181641-1.35966797 0.40869141-2.03730469 0.61787109-23.46240234-61.74316406-83.1796875-105.62958984-153.15644531-105.62958984s-129.69316406 43.88642578-153.1546875 105.63398437c-0.67851562-0.20917969-1.36054687-0.40605469-2.03730469-0.61787109-0.48779297-0.15205078-0.97470703-0.30761719-1.4625-0.46142578a496.13378906 496.13378906 0 0 1-7.97607422-2.58222657c-0.42363281-0.14150391-0.84550781-0.28564453-1.26826172-0.42802734a507.77314453 507.77314453 0 0 1-8.11582031-2.80195313c-0.31552734-0.11162109-0.63017578-0.22763672-0.94570312-0.34013671a511.77216797 511.77216797 0 0 1-8.14658203-2.98828125l-0.6319336-0.2381836a492.44150391 492.44150391 0 0 1-8.09472656-3.14736328c-0.31464844-0.12568359-0.63105469-0.24697266-0.94570313-0.37441406a499.81816406 499.81816406 0 0 1-7.90048828-3.2484375c-0.41220703-0.17314453-0.82705078-0.34541016-1.24013672-0.5203125a502.903125 502.903125 0 0 1-7.6368164-3.31523438c-0.46582031-0.20654297-0.93339844-0.41220703-1.39833985-0.6196289a496.17421875 496.17421875 0 0 1-8.92529296-4.09921875 495.25576172 495.25576172 0 0 1-16.09804688-7.9453125c-0.45527344-0.23554687-0.90791016-0.47197266-1.36230469-0.70839844a488.52246094 488.52246094 0 0 1-7.31777343-3.88476563c-0.39550781-0.21357422-0.78925781-0.43154297-1.18476563-0.646875a482.47734375 482.47734375 0 0 1-7.41005859-4.12382812c-0.29970703-0.17050781-0.59853516-0.34453125-0.89736328-0.51591797a481.01396484 481.01396484 0 0 1-7.60166016-4.43056641c-0.15556641-0.09228516-0.309375-0.18720703-0.46494141-0.27949218a490.65205078 490.65205078 0 0 1-7.54541015-4.60371094c-0.15380859-0.09492188-0.30849609-0.18896484-0.46230469-0.28476563a472.63359375 472.63359375 0 0 1-7.44960938-4.753125l-0.80507812-0.5203125a474.553125 474.553125 0 0 1-7.13583984-4.75927734c-0.32783203-0.22236328-0.65654297-0.44296875-0.9834961-0.66708984a471.39257813 471.39257813 0 0 1-6.91699219-4.81904297c-0.20302734-0.14414062-0.40693359-0.28740234-0.60996093-0.43242188V172.11640625c0-21.86982422 17.79257813-39.66152344 39.66152343-39.66152344h508.92714844c21.86982422 0 39.66152344 17.79169922 39.66152344 39.66152344v186.23847656z" fill="#707070" p-id="1564"></path></svg>